# xmcd
#
# Track frame offsets:
#	150
#	12955
#	23856
#	37049
#	48092
#	58181
#	67949
#	77236
#	89337
#	101666
#
# Disc length: 1532 seconds
#
# Revision: 1
# Processed by: cddbd v1.5.2PL0 Copyright (c) Steve Scherf et al.
# Submitted via: audiograbber 1.83.01
#
DISCID=7a05fa0a
DTITLE=Tommy Hooker - Texas In My Soul
DYEAR=2007
DGENRE=Country
TTITLE0=The Story Behind the Photograph
TTITLE1=Streets of Baltimore
TTITLE2=Mr. Record Man
TTITLE3=Healing Hands of Time
TTITLE4=Occasional Wife
TTITLE5=One Step Beyond
TTITLE6=Texas In My Soul
TTITLE7=Shoes
TTITLE8=Your Tender Loving Care
TTITLE9=Waltz Of the Wine
EXTD=
EXTT0=
EXTT1=
EXTT2=
EXTT3=
EXTT4=
EXTT5=
EXTT6=
EXTT7=
EXTT8=
EXTT9=
PLAYORDER=
